%TF.GenerationSoftware,KiCad,Pcbnew,8.0.8*%
%TF.CreationDate,2025-02-19T23:16:59+00:00*%
%TF.ProjectId,ESP32-Project,45535033-322d-4507-926f-6a6563742e6b,rev?*%
%TF.SameCoordinates,Original*%
%TF.FileFunction,Legend,Bot*%
%TF.FilePolarity,Positive*%
%FSLAX46Y46*%
G04 Gerber Fmt 4.6, Leading zero omitted, Abs format (unit mm)*
G04 Created by KiCad (PCBNEW 8.0.8) date 2025-02-19 23:16:59*
%MOMM*%
%LPD*%
G01*
G04 APERTURE LIST*
%ADD10C,0.400000*%
%ADD11R,1.500000X1.500000*%
%ADD12C,1.500000*%
%ADD13C,1.400000*%
%ADD14O,1.400000X1.400000*%
%ADD15R,1.800000X1.800000*%
%ADD16C,1.800000*%
%ADD17C,2.000000*%
%ADD18R,2.000000X2.000000*%
%ADD19C,3.300000*%
%ADD20R,1.600000X1.600000*%
%ADD21O,1.600000X1.600000*%
G04 APERTURE END LIST*
D10*
X102355890Y-56163009D02*
X101403509Y-56163009D01*
X102546366Y-56734438D02*
X101879700Y-54734438D01*
X101879700Y-54734438D02*
X101213033Y-56734438D01*
X100832080Y-54734438D02*
X99689223Y-54734438D01*
X100260652Y-56734438D02*
X100260652Y-54734438D01*
X99022556Y-54734438D02*
X99022556Y-56353485D01*
X99022556Y-56353485D02*
X98927318Y-56543961D01*
X98927318Y-56543961D02*
X98832080Y-56639200D01*
X98832080Y-56639200D02*
X98641604Y-56734438D01*
X98641604Y-56734438D02*
X98260651Y-56734438D01*
X98260651Y-56734438D02*
X98070175Y-56639200D01*
X98070175Y-56639200D02*
X97974937Y-56543961D01*
X97974937Y-56543961D02*
X97879699Y-56353485D01*
X97879699Y-56353485D02*
X97879699Y-54734438D01*
X96927318Y-55686819D02*
X96260651Y-55686819D01*
X95974937Y-56734438D02*
X96927318Y-56734438D01*
X96927318Y-56734438D02*
X96927318Y-54734438D01*
X96927318Y-54734438D02*
X95974937Y-54734438D01*
X94070175Y-54829676D02*
X94260651Y-54734438D01*
X94260651Y-54734438D02*
X94546365Y-54734438D01*
X94546365Y-54734438D02*
X94832080Y-54829676D01*
X94832080Y-54829676D02*
X95022556Y-55020152D01*
X95022556Y-55020152D02*
X95117794Y-55210628D01*
X95117794Y-55210628D02*
X95213032Y-55591580D01*
X95213032Y-55591580D02*
X95213032Y-55877295D01*
X95213032Y-55877295D02*
X95117794Y-56258247D01*
X95117794Y-56258247D02*
X95022556Y-56448723D01*
X95022556Y-56448723D02*
X94832080Y-56639200D01*
X94832080Y-56639200D02*
X94546365Y-56734438D01*
X94546365Y-56734438D02*
X94355889Y-56734438D01*
X94355889Y-56734438D02*
X94070175Y-56639200D01*
X94070175Y-56639200D02*
X93974937Y-56543961D01*
X93974937Y-56543961D02*
X93974937Y-55877295D01*
X93974937Y-55877295D02*
X94355889Y-55877295D01*
X92451127Y-55686819D02*
X92165413Y-55782057D01*
X92165413Y-55782057D02*
X92070175Y-55877295D01*
X92070175Y-55877295D02*
X91974937Y-56067771D01*
X91974937Y-56067771D02*
X91974937Y-56353485D01*
X91974937Y-56353485D02*
X92070175Y-56543961D01*
X92070175Y-56543961D02*
X92165413Y-56639200D01*
X92165413Y-56639200D02*
X92355889Y-56734438D01*
X92355889Y-56734438D02*
X93117794Y-56734438D01*
X93117794Y-56734438D02*
X93117794Y-54734438D01*
X93117794Y-54734438D02*
X92451127Y-54734438D01*
X92451127Y-54734438D02*
X92260651Y-54829676D01*
X92260651Y-54829676D02*
X92165413Y-54924914D01*
X92165413Y-54924914D02*
X92070175Y-55115390D01*
X92070175Y-55115390D02*
X92070175Y-55305866D01*
X92070175Y-55305866D02*
X92165413Y-55496342D01*
X92165413Y-55496342D02*
X92260651Y-55591580D01*
X92260651Y-55591580D02*
X92451127Y-55686819D01*
X92451127Y-55686819D02*
X93117794Y-55686819D01*
X91117794Y-55686819D02*
X90451127Y-55686819D01*
X90165413Y-56734438D02*
X91117794Y-56734438D01*
X91117794Y-56734438D02*
X91117794Y-54734438D01*
X91117794Y-54734438D02*
X90165413Y-54734438D01*
X86736841Y-54829676D02*
X86927317Y-54734438D01*
X86927317Y-54734438D02*
X87213031Y-54734438D01*
X87213031Y-54734438D02*
X87498746Y-54829676D01*
X87498746Y-54829676D02*
X87689222Y-55020152D01*
X87689222Y-55020152D02*
X87784460Y-55210628D01*
X87784460Y-55210628D02*
X87879698Y-55591580D01*
X87879698Y-55591580D02*
X87879698Y-55877295D01*
X87879698Y-55877295D02*
X87784460Y-56258247D01*
X87784460Y-56258247D02*
X87689222Y-56448723D01*
X87689222Y-56448723D02*
X87498746Y-56639200D01*
X87498746Y-56639200D02*
X87213031Y-56734438D01*
X87213031Y-56734438D02*
X87022555Y-56734438D01*
X87022555Y-56734438D02*
X86736841Y-56639200D01*
X86736841Y-56639200D02*
X86641603Y-56543961D01*
X86641603Y-56543961D02*
X86641603Y-55877295D01*
X86641603Y-55877295D02*
X87022555Y-55877295D01*
X85403508Y-54734438D02*
X85022555Y-54734438D01*
X85022555Y-54734438D02*
X84832079Y-54829676D01*
X84832079Y-54829676D02*
X84641603Y-55020152D01*
X84641603Y-55020152D02*
X84546365Y-55401104D01*
X84546365Y-55401104D02*
X84546365Y-56067771D01*
X84546365Y-56067771D02*
X84641603Y-56448723D01*
X84641603Y-56448723D02*
X84832079Y-56639200D01*
X84832079Y-56639200D02*
X85022555Y-56734438D01*
X85022555Y-56734438D02*
X85403508Y-56734438D01*
X85403508Y-56734438D02*
X85593984Y-56639200D01*
X85593984Y-56639200D02*
X85784460Y-56448723D01*
X85784460Y-56448723D02*
X85879698Y-56067771D01*
X85879698Y-56067771D02*
X85879698Y-55401104D01*
X85879698Y-55401104D02*
X85784460Y-55020152D01*
X85784460Y-55020152D02*
X85593984Y-54829676D01*
X85593984Y-54829676D02*
X85403508Y-54734438D01*
X83689222Y-56734438D02*
X83689222Y-54734438D01*
X83689222Y-54734438D02*
X83213032Y-54734438D01*
X83213032Y-54734438D02*
X82927317Y-54829676D01*
X82927317Y-54829676D02*
X82736841Y-55020152D01*
X82736841Y-55020152D02*
X82641603Y-55210628D01*
X82641603Y-55210628D02*
X82546365Y-55591580D01*
X82546365Y-55591580D02*
X82546365Y-55877295D01*
X82546365Y-55877295D02*
X82641603Y-56258247D01*
X82641603Y-56258247D02*
X82736841Y-56448723D01*
X82736841Y-56448723D02*
X82927317Y-56639200D01*
X82927317Y-56639200D02*
X83213032Y-56734438D01*
X83213032Y-56734438D02*
X83689222Y-56734438D01*
X81784460Y-56639200D02*
X81498746Y-56734438D01*
X81498746Y-56734438D02*
X81022555Y-56734438D01*
X81022555Y-56734438D02*
X80832079Y-56639200D01*
X80832079Y-56639200D02*
X80736841Y-56543961D01*
X80736841Y-56543961D02*
X80641603Y-56353485D01*
X80641603Y-56353485D02*
X80641603Y-56163009D01*
X80641603Y-56163009D02*
X80736841Y-55972533D01*
X80736841Y-55972533D02*
X80832079Y-55877295D01*
X80832079Y-55877295D02*
X81022555Y-55782057D01*
X81022555Y-55782057D02*
X81403508Y-55686819D01*
X81403508Y-55686819D02*
X81593984Y-55591580D01*
X81593984Y-55591580D02*
X81689222Y-55496342D01*
X81689222Y-55496342D02*
X81784460Y-55305866D01*
X81784460Y-55305866D02*
X81784460Y-55115390D01*
X81784460Y-55115390D02*
X81689222Y-54924914D01*
X81689222Y-54924914D02*
X81593984Y-54829676D01*
X81593984Y-54829676D02*
X81403508Y-54734438D01*
X81403508Y-54734438D02*
X80927317Y-54734438D01*
X80927317Y-54734438D02*
X80641603Y-54829676D01*
X80070174Y-54734438D02*
X78927317Y-54734438D01*
X79498746Y-56734438D02*
X79498746Y-54734438D01*
X78260650Y-56734438D02*
X78260650Y-54734438D01*
X77308269Y-56734438D02*
X77308269Y-54734438D01*
X77308269Y-54734438D02*
X76641602Y-56163009D01*
X76641602Y-56163009D02*
X75974936Y-54734438D01*
X75974936Y-54734438D02*
X75974936Y-56734438D01*
X75022555Y-55686819D02*
X74355888Y-55686819D01*
X74070174Y-56734438D02*
X75022555Y-56734438D01*
X75022555Y-56734438D02*
X75022555Y-54734438D01*
X75022555Y-54734438D02*
X74070174Y-54734438D01*
X71689221Y-55686819D02*
X71022554Y-55686819D01*
X70736840Y-56734438D02*
X71689221Y-56734438D01*
X71689221Y-56734438D02*
X71689221Y-54734438D01*
X71689221Y-54734438D02*
X70736840Y-54734438D01*
X69879697Y-56734438D02*
X69879697Y-54734438D01*
X69879697Y-55686819D02*
X68736840Y-55686819D01*
X68736840Y-56734438D02*
X68736840Y-54734438D01*
X67784459Y-56734438D02*
X67784459Y-54734438D01*
X66927316Y-56639200D02*
X66641602Y-56734438D01*
X66641602Y-56734438D02*
X66165411Y-56734438D01*
X66165411Y-56734438D02*
X65974935Y-56639200D01*
X65974935Y-56639200D02*
X65879697Y-56543961D01*
X65879697Y-56543961D02*
X65784459Y-56353485D01*
X65784459Y-56353485D02*
X65784459Y-56163009D01*
X65784459Y-56163009D02*
X65879697Y-55972533D01*
X65879697Y-55972533D02*
X65974935Y-55877295D01*
X65974935Y-55877295D02*
X66165411Y-55782057D01*
X66165411Y-55782057D02*
X66546364Y-55686819D01*
X66546364Y-55686819D02*
X66736840Y-55591580D01*
X66736840Y-55591580D02*
X66832078Y-55496342D01*
X66832078Y-55496342D02*
X66927316Y-55305866D01*
X66927316Y-55305866D02*
X66927316Y-55115390D01*
X66927316Y-55115390D02*
X66832078Y-54924914D01*
X66832078Y-54924914D02*
X66736840Y-54829676D01*
X66736840Y-54829676D02*
X66546364Y-54734438D01*
X66546364Y-54734438D02*
X66070173Y-54734438D01*
X66070173Y-54734438D02*
X65784459Y-54829676D01*
X63784459Y-56543961D02*
X63879697Y-56639200D01*
X63879697Y-56639200D02*
X64165411Y-56734438D01*
X64165411Y-56734438D02*
X64355887Y-56734438D01*
X64355887Y-56734438D02*
X64641602Y-56639200D01*
X64641602Y-56639200D02*
X64832078Y-56448723D01*
X64832078Y-56448723D02*
X64927316Y-56258247D01*
X64927316Y-56258247D02*
X65022554Y-55877295D01*
X65022554Y-55877295D02*
X65022554Y-55591580D01*
X65022554Y-55591580D02*
X64927316Y-55210628D01*
X64927316Y-55210628D02*
X64832078Y-55020152D01*
X64832078Y-55020152D02*
X64641602Y-54829676D01*
X64641602Y-54829676D02*
X64355887Y-54734438D01*
X64355887Y-54734438D02*
X64165411Y-54734438D01*
X64165411Y-54734438D02*
X63879697Y-54829676D01*
X63879697Y-54829676D02*
X63784459Y-54924914D01*
X62927316Y-56734438D02*
X62927316Y-54734438D01*
X62927316Y-55686819D02*
X61784459Y-55686819D01*
X61784459Y-56734438D02*
X61784459Y-54734438D01*
X60832078Y-56734438D02*
X60832078Y-54734438D01*
X59498745Y-54734438D02*
X59117792Y-54734438D01*
X59117792Y-54734438D02*
X58927316Y-54829676D01*
X58927316Y-54829676D02*
X58736840Y-55020152D01*
X58736840Y-55020152D02*
X58641602Y-55401104D01*
X58641602Y-55401104D02*
X58641602Y-56067771D01*
X58641602Y-56067771D02*
X58736840Y-56448723D01*
X58736840Y-56448723D02*
X58927316Y-56639200D01*
X58927316Y-56639200D02*
X59117792Y-56734438D01*
X59117792Y-56734438D02*
X59498745Y-56734438D01*
X59498745Y-56734438D02*
X59689221Y-56639200D01*
X59689221Y-56639200D02*
X59879697Y-56448723D01*
X59879697Y-56448723D02*
X59974935Y-56067771D01*
X59974935Y-56067771D02*
X59974935Y-55401104D01*
X59974935Y-55401104D02*
X59879697Y-55020152D01*
X59879697Y-55020152D02*
X59689221Y-54829676D01*
X59689221Y-54829676D02*
X59498745Y-54734438D01*
X57403507Y-55782057D02*
X57403507Y-56734438D01*
X58070173Y-54734438D02*
X57403507Y-55782057D01*
X57403507Y-55782057D02*
X56736840Y-54734438D01*
X56165411Y-56163009D02*
X55213030Y-56163009D01*
X56355887Y-56734438D02*
X55689221Y-54734438D01*
X55689221Y-54734438D02*
X55022554Y-56734438D01*
%LPC*%
D11*
%TO.C,U1*%
X57500000Y-72880000D03*
D12*
X57500000Y-75420000D03*
X57500000Y-77960000D03*
X57500000Y-80500000D03*
%TD*%
D13*
%TO.C,R2*%
X87500000Y-73690000D03*
D14*
X87500000Y-81310000D03*
%TD*%
D13*
%TO.C,R1*%
X90650000Y-73690000D03*
D14*
X90650000Y-81310000D03*
%TD*%
D15*
%TO.C,D1*%
X78000000Y-80000000D03*
D16*
X80540000Y-80000000D03*
%TD*%
D17*
%TO.C,BT1*%
X55835000Y-59495000D03*
D18*
X55835000Y-44505000D03*
D19*
X83000000Y-59495000D03*
X83000000Y-44505000D03*
%TD*%
D20*
%TO.C,A1*%
X35260000Y-41300000D03*
D21*
X35260000Y-43840000D03*
X35260000Y-46380000D03*
X35260000Y-48920000D03*
X35260000Y-51460000D03*
X35260000Y-54000000D03*
X35260000Y-56540000D03*
X35260000Y-59080000D03*
X35260000Y-61620000D03*
X35260000Y-64160000D03*
X35260000Y-66700000D03*
X35260000Y-69240000D03*
X35260000Y-71780000D03*
X35260000Y-74320000D03*
X35260000Y-76860000D03*
X50500000Y-76860000D03*
X50500000Y-74320000D03*
X50500000Y-71780000D03*
X50500000Y-69240000D03*
X50500000Y-66700000D03*
X50500000Y-64160000D03*
X50500000Y-61620000D03*
X50500000Y-59080000D03*
X50500000Y-56540000D03*
X50500000Y-54000000D03*
X50500000Y-51460000D03*
X50500000Y-48920000D03*
X50500000Y-46380000D03*
X50500000Y-43840000D03*
X50500000Y-41300000D03*
%TD*%
%LPD*%
M02*
