%TF.GenerationSoftware,KiCad,Pcbnew,8.0.8*%
%TF.CreationDate,2025-02-19T23:23:06+00:00*%
%TF.ProjectId,ESP32-Project,45535033-322d-4507-926f-6a6563742e6b,rev?*%
%TF.SameCoordinates,Original*%
%TF.FileFunction,Soldermask,Bot*%
%TF.FilePolarity,Negative*%
%FSLAX46Y46*%
G04 Gerber Fmt 4.6, Leading zero omitted, Abs format (unit mm)*
G04 Created by KiCad (PCBNEW 8.0.8) date 2025-02-19 23:23:06*
%MOMM*%
%LPD*%
G01*
G04 APERTURE LIST*
%ADD10R,1.500000X1.500000*%
%ADD11C,1.500000*%
%ADD12C,1.400000*%
%ADD13O,1.400000X1.400000*%
%ADD14R,1.800000X1.800000*%
%ADD15C,1.800000*%
%ADD16C,2.000000*%
%ADD17R,2.000000X2.000000*%
%ADD18C,3.300000*%
%ADD19R,1.600000X1.600000*%
%ADD20O,1.600000X1.600000*%
G04 APERTURE END LIST*
D10*
%TO.C,U1*%
X57500000Y-72880000D03*
D11*
X57500000Y-75420000D03*
X57500000Y-77960000D03*
X57500000Y-80500000D03*
%TD*%
D12*
%TO.C,R2*%
X87500000Y-73690000D03*
D13*
X87500000Y-81310000D03*
%TD*%
D12*
%TO.C,R1*%
X90650000Y-73690000D03*
D13*
X90650000Y-81310000D03*
%TD*%
D14*
%TO.C,D1*%
X78000000Y-80000000D03*
D15*
X80540000Y-80000000D03*
%TD*%
D16*
%TO.C,BT1*%
X55835000Y-59495000D03*
D17*
X55835000Y-44505000D03*
D18*
X83000000Y-59495000D03*
X83000000Y-44505000D03*
%TD*%
D19*
%TO.C,A1*%
X35260000Y-41300000D03*
D20*
X35260000Y-43840000D03*
X35260000Y-46380000D03*
X35260000Y-48920000D03*
X35260000Y-51460000D03*
X35260000Y-54000000D03*
X35260000Y-56540000D03*
X35260000Y-59080000D03*
X35260000Y-61620000D03*
X35260000Y-64160000D03*
X35260000Y-66700000D03*
X35260000Y-69240000D03*
X35260000Y-71780000D03*
X35260000Y-74320000D03*
X35260000Y-76860000D03*
X50500000Y-76860000D03*
X50500000Y-74320000D03*
X50500000Y-71780000D03*
X50500000Y-69240000D03*
X50500000Y-66700000D03*
X50500000Y-64160000D03*
X50500000Y-61620000D03*
X50500000Y-59080000D03*
X50500000Y-56540000D03*
X50500000Y-54000000D03*
X50500000Y-51460000D03*
X50500000Y-48920000D03*
X50500000Y-46380000D03*
X50500000Y-43840000D03*
X50500000Y-41300000D03*
%TD*%
M02*
