M48
; DRILL file {KiCad 8.0.8} date 2025-02-19T23:22:56+0000
; FORMAT={-:-/ absolute / inch / decimal}
; #@! TF.CreationDate,2025-02-19T23:22:56+00:00
; #@! TF.GenerationSoftware,Kicad,Pcbnew,8.0.8
; #@! TF.FileFunction,Plated,1,2,PTH
FMAT,2
INCH
; #@! TA.AperFunction,Plated,PTH,ViaDrill
T1C0.0118
; #@! TA.AperFunction,Plated,PTH,ComponentDrill
T2C0.0276
; #@! TA.AperFunction,Plated,PTH,ComponentDrill
T3C0.0315
; #@! TA.AperFunction,Plated,PTH,ComponentDrill
T4C0.0354
; #@! TA.AperFunction,Plated,PTH,ComponentDrill
T5C0.0394
; #@! TA.AperFunction,Plated,PTH,ComponentDrill
T6C0.0402
%
G90
G05
T1
X2.1982Y-2.9108
X2.3086Y-2.7976
X2.3323Y-3.1139
X3.4449Y-2.076
T2
X3.4449Y-2.9012
X3.4449Y-3.2012
X3.5689Y-2.9012
X3.5689Y-3.2012
T3
X2.2638Y-2.8693
X2.2638Y-2.9693
X2.2638Y-3.0693
X2.2638Y-3.1693
T4
X3.0709Y-3.1496
X3.1709Y-3.1496
T5
X1.3882Y-1.626
X1.3882Y-1.726
X1.3882Y-1.826
X1.3882Y-1.926
X1.3882Y-2.026
X1.3882Y-2.126
X1.3882Y-2.226
X1.3882Y-2.326
X1.3882Y-2.426
X1.3882Y-2.526
X1.3882Y-2.626
X1.3882Y-2.726
X1.3882Y-2.826
X1.3882Y-2.926
X1.3882Y-3.026
X1.9882Y-1.626
X1.9882Y-1.726
X1.9882Y-1.826
X1.9882Y-1.926
X1.9882Y-2.026
X1.9882Y-2.126
X1.9882Y-2.226
X1.9882Y-2.326
X1.9882Y-2.426
X1.9882Y-2.526
X1.9882Y-2.626
X1.9882Y-2.726
X1.9882Y-2.826
X1.9882Y-2.926
X1.9882Y-3.026
T6
X2.1982Y-1.7522
X2.1982Y-2.3423
M30
