%TF.GenerationSoftware,KiCad,Pcbnew,8.0.8*%
%TF.CreationDate,2025-02-19T23:23:06+00:00*%
%TF.ProjectId,ESP32-Project,45535033-322d-4507-926f-6a6563742e6b,rev?*%
%TF.SameCoordinates,Original*%
%TF.FileFunction,Soldermask,Top*%
%TF.FilePolarity,Negative*%
%FSLAX46Y46*%
G04 Gerber Fmt 4.6, Leading zero omitted, Abs format (unit mm)*
G04 Created by KiCad (PCBNEW 8.0.8) date 2025-02-19 23:23:06*
%MOMM*%
%LPD*%
G01*
G04 APERTURE LIST*
G04 Aperture macros list*
%AMRoundRect*
0 Rectangle with rounded corners*
0 $1 Rounding radius*
0 $2 $3 $4 $5 $6 $7 $8 $9 X,Y pos of 4 corners*
0 Add a 4 corners polygon primitive as box body*
4,1,4,$2,$3,$4,$5,$6,$7,$8,$9,$2,$3,0*
0 Add four circle primitives for the rounded corners*
1,1,$1+$1,$2,$3*
1,1,$1+$1,$4,$5*
1,1,$1+$1,$6,$7*
1,1,$1+$1,$8,$9*
0 Add four rect primitives between the rounded corners*
20,1,$1+$1,$2,$3,$4,$5,0*
20,1,$1+$1,$4,$5,$6,$7,0*
20,1,$1+$1,$6,$7,$8,$9,0*
20,1,$1+$1,$8,$9,$2,$3,0*%
G04 Aperture macros list end*
%ADD10RoundRect,0.375000X-0.625000X-0.375000X0.625000X-0.375000X0.625000X0.375000X-0.625000X0.375000X0*%
%ADD11RoundRect,0.500000X-0.500000X-1.400000X0.500000X-1.400000X0.500000X1.400000X-0.500000X1.400000X0*%
%ADD12R,1.500000X1.500000*%
%ADD13C,1.500000*%
%ADD14C,1.400000*%
%ADD15O,1.400000X1.400000*%
%ADD16R,1.800000X1.800000*%
%ADD17C,1.800000*%
%ADD18RoundRect,0.250000X-1.250000X-0.550000X1.250000X-0.550000X1.250000X0.550000X-1.250000X0.550000X0*%
%ADD19C,2.000000*%
%ADD20R,2.000000X2.000000*%
%ADD21C,3.300000*%
%ADD22R,1.600000X1.600000*%
%ADD23O,1.600000X1.600000*%
G04 APERTURE END LIST*
D10*
%TO.C,U2*%
X65350000Y-74700000D03*
X65350000Y-77000000D03*
D11*
X71650000Y-77000000D03*
D10*
X65350000Y-79300000D03*
%TD*%
D12*
%TO.C,U1*%
X57500000Y-72880000D03*
D13*
X57500000Y-75420000D03*
X57500000Y-77960000D03*
X57500000Y-80500000D03*
%TD*%
D14*
%TO.C,R2*%
X87500000Y-73690000D03*
D15*
X87500000Y-81310000D03*
%TD*%
D14*
%TO.C,R1*%
X90650000Y-73690000D03*
D15*
X90650000Y-81310000D03*
%TD*%
D16*
%TO.C,D1*%
X78000000Y-80000000D03*
D17*
X80540000Y-80000000D03*
%TD*%
D18*
%TO.C,C2*%
X76800000Y-72500000D03*
X81200000Y-72500000D03*
%TD*%
D19*
%TO.C,BT1*%
X55835000Y-59495000D03*
D20*
X55835000Y-44505000D03*
D21*
X83000000Y-59495000D03*
X83000000Y-44505000D03*
%TD*%
D22*
%TO.C,A1*%
X35260000Y-41300000D03*
D23*
X35260000Y-43840000D03*
X35260000Y-46380000D03*
X35260000Y-48920000D03*
X35260000Y-51460000D03*
X35260000Y-54000000D03*
X35260000Y-56540000D03*
X35260000Y-59080000D03*
X35260000Y-61620000D03*
X35260000Y-64160000D03*
X35260000Y-66700000D03*
X35260000Y-69240000D03*
X35260000Y-71780000D03*
X35260000Y-74320000D03*
X35260000Y-76860000D03*
X50500000Y-76860000D03*
X50500000Y-74320000D03*
X50500000Y-71780000D03*
X50500000Y-69240000D03*
X50500000Y-66700000D03*
X50500000Y-64160000D03*
X50500000Y-61620000D03*
X50500000Y-59080000D03*
X50500000Y-56540000D03*
X50500000Y-54000000D03*
X50500000Y-51460000D03*
X50500000Y-48920000D03*
X50500000Y-46380000D03*
X50500000Y-43840000D03*
X50500000Y-41300000D03*
%TD*%
M02*
