%TF.GenerationSoftware,KiCad,Pcbnew,8.0.8*%
%TF.CreationDate,2025-02-19T23:23:06+00:00*%
%TF.ProjectId,ESP32-Project,45535033-322d-4507-926f-6a6563742e6b,rev?*%
%TF.SameCoordinates,Original*%
%TF.FileFunction,Copper,L2,Bot*%
%TF.FilePolarity,Positive*%
%FSLAX46Y46*%
G04 Gerber Fmt 4.6, Leading zero omitted, Abs format (unit mm)*
G04 Created by KiCad (PCBNEW 8.0.8) date 2025-02-19 23:23:06*
%MOMM*%
%LPD*%
G01*
G04 APERTURE LIST*
%TA.AperFunction,ComponentPad*%
%ADD10R,1.500000X1.500000*%
%TD*%
%TA.AperFunction,ComponentPad*%
%ADD11C,1.500000*%
%TD*%
%TA.AperFunction,ComponentPad*%
%ADD12C,1.400000*%
%TD*%
%TA.AperFunction,ComponentPad*%
%ADD13O,1.400000X1.400000*%
%TD*%
%TA.AperFunction,ComponentPad*%
%ADD14R,1.800000X1.800000*%
%TD*%
%TA.AperFunction,ComponentPad*%
%ADD15C,1.800000*%
%TD*%
%TA.AperFunction,ComponentPad*%
%ADD16C,2.000000*%
%TD*%
%TA.AperFunction,ComponentPad*%
%ADD17R,2.000000X2.000000*%
%TD*%
%TA.AperFunction,ComponentPad*%
%ADD18R,1.600000X1.600000*%
%TD*%
%TA.AperFunction,ComponentPad*%
%ADD19O,1.600000X1.600000*%
%TD*%
%TA.AperFunction,ViaPad*%
%ADD20C,0.600000*%
%TD*%
%TA.AperFunction,Conductor*%
%ADD21C,0.200000*%
%TD*%
G04 APERTURE END LIST*
D10*
%TO.P,U1,1,VDD*%
%TO.N,Net-(A1-3V3)*%
X57500000Y-72880000D03*
D11*
%TO.P,U1,2,DATA*%
%TO.N,Net-(U1-DATA)*%
X57500000Y-75420000D03*
%TO.P,U1,3,NC*%
%TO.N,unconnected-(U1-NC-Pad3)*%
X57500000Y-77960000D03*
%TO.P,U1,4,GND*%
%TO.N,GND*%
X57500000Y-80500000D03*
%TD*%
D12*
%TO.P,R2,1*%
%TO.N,Net-(A1-D2)*%
X87500000Y-73690000D03*
D13*
%TO.P,R2,2*%
%TO.N,Net-(D1-A)*%
X87500000Y-81310000D03*
%TD*%
D12*
%TO.P,R1,1*%
%TO.N,Net-(A1-D4)*%
X90650000Y-73690000D03*
D13*
%TO.P,R1,2*%
%TO.N,Net-(U1-DATA)*%
X90650000Y-81310000D03*
%TD*%
D14*
%TO.P,D1,1,K*%
%TO.N,GND*%
X78000000Y-80000000D03*
D15*
%TO.P,D1,2,A*%
%TO.N,Net-(D1-A)*%
X80540000Y-80000000D03*
%TD*%
D16*
%TO.P,BT1,2,-*%
%TO.N,GND*%
X55835000Y-59495000D03*
D17*
%TO.P,BT1,1,+*%
%TO.N,Net-(BT1-+)*%
X55835000Y-44505000D03*
%TD*%
D18*
%TO.P,A1,1,D1/TX*%
%TO.N,unconnected-(A1-D1{slash}TX-Pad1)*%
X35260000Y-41300000D03*
D19*
%TO.P,A1,2,D0/RX*%
%TO.N,unconnected-(A1-D0{slash}RX-Pad2)*%
X35260000Y-43840000D03*
%TO.P,A1,3,~{RESET}*%
%TO.N,unconnected-(A1-~{RESET}-Pad3)*%
X35260000Y-46380000D03*
%TO.P,A1,4,GND*%
%TO.N,GND*%
X35260000Y-48920000D03*
%TO.P,A1,5,D2*%
%TO.N,Net-(A1-D2)*%
X35260000Y-51460000D03*
%TO.P,A1,6,D3*%
%TO.N,unconnected-(A1-D3-Pad6)*%
X35260000Y-54000000D03*
%TO.P,A1,7,D4*%
%TO.N,Net-(A1-D4)*%
X35260000Y-56540000D03*
%TO.P,A1,8,D5*%
%TO.N,unconnected-(A1-D5-Pad8)*%
X35260000Y-59080000D03*
%TO.P,A1,9,D6*%
%TO.N,unconnected-(A1-D6-Pad9)*%
X35260000Y-61620000D03*
%TO.P,A1,10,D7*%
%TO.N,unconnected-(A1-D7-Pad10)*%
X35260000Y-64160000D03*
%TO.P,A1,11,D8*%
%TO.N,unconnected-(A1-D8-Pad11)*%
X35260000Y-66700000D03*
%TO.P,A1,12,D9*%
%TO.N,unconnected-(A1-D9-Pad12)*%
X35260000Y-69240000D03*
%TO.P,A1,13,D10/CS*%
%TO.N,unconnected-(A1-D10{slash}CS-Pad13)*%
X35260000Y-71780000D03*
%TO.P,A1,14,D11/COPI*%
%TO.N,unconnected-(A1-D11{slash}COPI-Pad14)*%
X35260000Y-74320000D03*
%TO.P,A1,15,D12/CIPO*%
%TO.N,unconnected-(A1-D12{slash}CIPO-Pad15)*%
X35260000Y-76860000D03*
%TO.P,A1,16,D13/SCK*%
%TO.N,unconnected-(A1-D13{slash}SCK-Pad16)*%
X50500000Y-76860000D03*
%TO.P,A1,17,3V3*%
%TO.N,Net-(A1-3V3)*%
X50500000Y-74320000D03*
%TO.P,A1,18,B0*%
%TO.N,unconnected-(A1-B0-Pad18)*%
X50500000Y-71780000D03*
%TO.P,A1,19,A0*%
%TO.N,unconnected-(A1-A0-Pad19)*%
X50500000Y-69240000D03*
%TO.P,A1,20,A1*%
%TO.N,unconnected-(A1-A1-Pad20)*%
X50500000Y-66700000D03*
%TO.P,A1,21,A2*%
%TO.N,unconnected-(A1-A2-Pad21)*%
X50500000Y-64160000D03*
%TO.P,A1,22,A3*%
%TO.N,unconnected-(A1-A3-Pad22)*%
X50500000Y-61620000D03*
%TO.P,A1,23,SDA/A4*%
%TO.N,unconnected-(A1-SDA{slash}A4-Pad23)*%
X50500000Y-59080000D03*
%TO.P,A1,24,SCL/A5*%
%TO.N,unconnected-(A1-SCL{slash}A5-Pad24)*%
X50500000Y-56540000D03*
%TO.P,A1,25,A6*%
%TO.N,unconnected-(A1-A6-Pad25)*%
X50500000Y-54000000D03*
%TO.P,A1,26,A7*%
%TO.N,unconnected-(A1-A7-Pad26)*%
X50500000Y-51460000D03*
%TO.P,A1,27,VUSB/5V*%
%TO.N,unconnected-(A1-VUSB{slash}5V-Pad27)*%
X50500000Y-48920000D03*
%TO.P,A1,28,B1*%
%TO.N,unconnected-(A1-B1-Pad28)*%
X50500000Y-46380000D03*
%TO.P,A1,29,GND*%
%TO.N,GND*%
X50500000Y-43840000D03*
%TO.P,A1,30,VIN*%
%TO.N,Net-(A1-VIN)*%
X50500000Y-41300000D03*
%TD*%
D20*
%TO.N,Net-(BT1-+)*%
X59241200Y-79091800D03*
%TO.N,Net-(A1-VIN)*%
X58637500Y-71059700D03*
%TO.N,Net-(A1-D2)*%
X87500000Y-52730000D03*
%TO.N,GND*%
X55835000Y-73934200D03*
%TD*%
D21*
%TO.N,Net-(BT1-+)*%
X55835000Y-44505000D02*
X55835000Y-45806700D01*
X59241200Y-49212900D02*
X59241200Y-79091800D01*
X55835000Y-45806700D02*
X59241200Y-49212900D01*
%TO.N,Net-(A1-VIN)*%
X50500000Y-41300000D02*
X50500000Y-42401700D01*
X58637500Y-50310900D02*
X58637500Y-71059700D01*
X50728300Y-42401700D02*
X58637500Y-50310900D01*
X50500000Y-42401700D02*
X50728300Y-42401700D01*
%TO.N,Net-(A1-D2)*%
X87500000Y-73690000D02*
X87500000Y-52730000D01*
%TO.N,GND*%
X50500000Y-43840000D02*
X50500000Y-44941700D01*
X55835000Y-50139000D02*
X55835000Y-59495000D01*
X50637700Y-44941700D02*
X55835000Y-50139000D01*
X50500000Y-44941700D02*
X50637700Y-44941700D01*
X55835000Y-59495000D02*
X55835000Y-73934200D01*
X55835000Y-78835000D02*
X57500000Y-80500000D01*
X55835000Y-73934200D02*
X55835000Y-78835000D01*
%TD*%
M02*
